HIERARCHY
ROOT Hips
{
  OFFSET -107.43 86.3176 -36.8218
  CHANNELS 6 Xposition Yposition Zposition Zrotation Xrotation Yrotation
  JOINT RightUpLeg
  {
    OFFSET -8.9458 -8.66707 0.101652
    CHANNELS 3 Zrotation Xrotation Yrotation
    JOINT RightLeg
    {
      OFFSET 0 -44.4227 1.3727
      CHANNELS 3 Zrotation Xrotation Yrotation
      JOINT RightFoot
      {
        OFFSET 0.253549 -42.0924 -1.46059
        CHANNELS 3 Zrotation Xrotation Yrotation
        JOINT RightToes
        {
          OFFSET 0.04 -4.41509 8.4991
          CHANNELS 3 Zrotation Xrotation Yrotation
          End Site
          {
            OFFSET -0.08 -0.137448 9.77979
          }
        }
      }
    }
  }
  JOINT Spine
  {
    OFFSET 0 11.8905 0
    CHANNELS 3 Zrotation Xrotation Yrotation
    JOINT Spine1
    {
      OFFSET 0 25.6574 0.127663
      CHANNELS 3 Zrotation Xrotation Yrotation
      JOINT HEad
      {
        OFFSET 0 8.73416 0.011341
        CHANNELS 3 Zrotation Xrotation Yrotation
        End Site
        {
          OFFSET -0.29 12.7742 2.51395
        }
      }
      JOINT LeftShoulder1
      {
        OFFSET 8.99 -0.362252 -0.22
        CHANNELS 3 Zrotation Xrotation Yrotation
        JOINT LeftArm
        {
          OFFSET 10.2827 -0.00338 0.322123
          CHANNELS 3 Zrotation Xrotation Yrotation
          JOINT LeftForeArm
          {
            OFFSET 32.7669 0.099144 -1.42434
            CHANNELS 3 Zrotation Xrotation Yrotation
            JOINT LeftHand
            {
              OFFSET 27.5643 0.085362 1.02216
              CHANNELS 3 Zrotation Xrotation Yrotation
              End Site
              {
                OFFSET 16.7443 -0.6 1.50291
              }
            }
          }
        }
      }
      JOINT RightShoulder
      {
        OFFSET -8.99 -0.362252 -0.22
        CHANNELS 3 Zrotation Xrotation Yrotation
        JOINT RightArm
        {
          OFFSET -10.2827 -0.00338 0.322123
          CHANNELS 3 Zrotation Xrotation Yrotation
          JOINT RightForeArm
          {
            OFFSET -32.8971 0.099144 -1.42434
            CHANNELS 3 Zrotation Xrotation Yrotation
            JOINT RightHand
            {
              OFFSET -27.4921 0.085362 1.02216
              CHANNELS 3 Zrotation Xrotation Yrotation
              End Site
              {
                OFFSET -16.6312 -0.6 1.50291
              }
            }
          }
        }
      }
    }
  }
  JOINT LeftUpLeg
  {
    OFFSET 8.9458 -8.66707 0.101652
    CHANNELS 3 Zrotation Xrotation Yrotation
    JOINT LeftLeg
    {
      OFFSET 0 -44.4227 1.3727
      CHANNELS 3 Zrotation Xrotation Yrotation
      JOINT LeftFoot
      {
        OFFSET -0.253549 -42.0924 -1.46059
        CHANNELS 3 Zrotation Xrotation Yrotation
        JOINT LeftToes
        {
          OFFSET -0.04 -4.41509 8.4991
          CHANNELS 3 Zrotation Xrotation Yrotation
          End Site
          {
            OFFSET 0.08 -0.047448 9.77979
          }
        }
      }
    }
  }
}
MOTION
Frames:	12
Frame Time:	0.0166667
-6.44738 91.4668 -15.3971 -0.669298 8.74242 -126.265 -25.9381 -19.7836 -0.217437 26.4357 40.4487 -27.4041 20.7408 25.2521 -5.95574 -33.9277 -31.2836 3.35365 3.95783 8.87446 -4.34311 2.39458 17.4589 -8.23962 7.93801 -11.7907 -15.9674 -1.59028e-015 -6.36111e-015 3.18055e-015 -69.6389 -10.078 -65.1514 24.3107 20.5227 -126.484 -6.2208 8.5585 26.3456 24.6616 -1.55518 -8.19135 40.4785 -46.0571 31.0506 -12.804 8.44349 147.055 26.5415 5.33121 -23.1484 32.1005 -4.59222 -8.14703 -19.1424 31.6778 35.8597 19.7581 32.0956 -7.15056 69.1523 -48.7517 46.5075 
-6.40378 91.215 -16.3371 -1.68673 7.61937 -124.699 -27.4834 -17.8981 2.66037 25.8358 37.7847 -28.9443 17.7314 22.4328 -4.64729 -29.2476 -26.6607 2.70224 3.87149 8.87771 -3.99712 1.67705 17.5411 -7.41626 7.65504 -12.7822 -19.005 -1.59028e-015 -1.59028e-015 -0 -65.9946 -8.6392 -59.8206 22.679 18.4232 -126.167 -4.84299 8.91318 24.5633 22.553 -1.32563 -7.76776 39.8951 -55.7047 30.9149 -13.9621 9.21837 147.789 24.3412 5.3442 -24.7705 31.2767 -8.76003 -6.49669 -18.4955 37.8191 30.2021 13.9882 37.019 -5.76417 71.5566 -50.5553 46.4493 
-6.43857 90.8013 -17.1235 -2.78872 6.42711 -124.052 -28.5346 -16.1135 6.42584 23.9684 34.6883 -29.9528 16.4894 22.1142 -4.2716 -26.8204 -23.9811 1.56316 3.54758 8.99581 -3.33569 0.793224 17.8433 -5.96288 7.2323 -14.0194 -22.3062 5.29669e-031 -4.77083e-015 6.36111e-015 -62.6999 -6.89909 -54.0458 20.9853 16.3073 -125.981 -3.44086 9.23551 22.5465 19.5413 -0.9396 -6.75541 42.7053 -66.4792 34.8562 -15.7426 13.5881 145.046 19.8799 5.70559 -27.2906 30.0833 -12.5713 -5.20702 -17.7001 43.5191 25.2261 8.03419 40.9764 -3.72622 71.2996 -52.5916 43.4906 
-6.55677 90.2087 -17.7055 -3.88711 5.23507 -125.032 -29.2396 -15.1431 9.58045 20.8195 32.174 -29.5601 16.9011 24.4322 -4.71177 -28.1058 -24.5942 0.257296 2.98686 9.18049 -2.33336 -0.312702 18.2289 -3.83844 6.51704 -15.2035 -25.3528 3.18055e-015 6.36111e-015 -0 -60.3539 -5.24733 -48.2456 19.4004 14.372 -126.001 -2.43595 9.45271 20.4699 15.5822 -0.457881 -5.08514 50.0533 -73.9122 44.714 -18.6907 18.6287 138.068 15.3628 6.11693 -30.8589 28.965 -15.0039 -4.77465 -18.4442 47.3134 23.7222 4.37158 43.1081 -2.24955 69.401 -53.9727 39.7162 
-6.7505 89.4705 -18.0576 -4.94953 4.15249 -127.949 -29.768 -15.4038 10.8802 16.8435 30.7359 -27.3381 18.0973 28.3402 -5.65836 -33.0836 -28.1886 -1.41905 2.28884 9.35694 -1.11631 -1.61756 18.5274 -1.28372 5.4672 -15.9875 -27.496 0 0 -0 -59.329 -4.05548 -42.7293 18.0273 12.6248 -126.367 -2.03061 9.55698 18.5056 10.553 0.0311017 -2.58715 56.7218 -75.8267 54.8368 -22.3871 22.2215 126.869 13.8992 5.85069 -35.3806 28.227 -15.5235 -5.10183 -21.6992 48.6132 26.905 4.51138 42.8824 -2.30137 67.0349 -54.0271 37.1307 
-7.03905 88.628 -18.2063 -5.8932 3.3625 -132.579 -30.0127 -16.948 9.81908 12.3514 30.388 -23.0847 19.478 32.414 -6.7925 -40.5502 -33.3324 -3.77802 1.5868 9.45767 0.0729837 -2.90449 18.6102 1.19866 4.21136 -16.1547 -28.0984 2.64834e-031 -4.77083e-015 3.18055e-015 -59.6955 -3.72295 -37.945 16.737 11.256 -127.132 -2.04166 9.59798 16.753 4.66292 0.353251 0.742113 51.2264 -71.8168 53.0551 -25.7313 21.9655 111.686 18.6716 3.60779 -40.1547 27.8805 -14.1526 -5.79353 -26.571 47.633 33.4127 7.86422 39.8208 -3.55984 63.4922 -52.4796 35.3348 
-7.45463 87.7255 -18.2545 -6.52311 2.99016 -138.171 -29.7021 -19.4551 6.94208 7.5414 30.7746 -17.1009 21.19 35.7143 -8.02815 -48.9501 -38.6237 -6.61673 0.965427 9.44219 0.954492 -3.80161 18.4451 2.96967 2.97373 -15.8049 -26.7522 1.59028e-015 -1.59028e-015 -3.18055e-015 -61.1793 -4.77261 -34.6549 15.1705 10.8609 -128.177 -2.01322 9.63795 15.2044 -1.26021 0.343145 4.47654 30.6908 -53.2963 39.2219 -29.3121 6.75378 87.2964 33.1237 -2.04392 -42.1529 27.6851 -11.3936 -6.40063 -31.1339 45.3103 40.6247 12.4104 33.9777 -4.76972 57.978 -49.4214 33.2657 
-8.00323 86.8197 -18.3369 -6.59527 2.93729 -143.683 -28.7348 -22.3951 3.72018 2.98281 31.4358 -10.6988 23.5345 37.9431 -9.42115 -56.9076 -43.1761 -9.5034 0.511085 9.30797 1.28282 -3.9704 18.104 3.46744 1.92849 -15.3907 -23.481 -1.59028e-015 -4.77083e-015 3.18055e-015 -63.296 -7.71777 -33.8605 13.037 12.2294 -129.225 -1.43928 9.7177 13.8337 -5.91506 0.060967 7.78856 28.2877 -41.4538 40.803 -34.3038 -0.804742 71.7181 50.5443 -6.90556 -38.2035 27.3861 -8.08786 -6.60785 -34.086 42.8698 46.7393 16.2785 26.2702 -5.02059 51.3214 -45.4073 30.9446 
-8.6422 85.9835 -18.5292 -5.98835 2.94036 -148.206 -27.3287 -25.256 1.73945 -0.328824 32.127 -5.94321 26.1035 39.3292 -10.8215 -63.5465 -46.5321 -12.2221 0.366579 9.11674 0.917036 -3.27048 17.7384 2.42626 1.11512 -15.501 -18.7686 -0 0 3.18055e-015 -65.7801 -12.7187 -36.5262 10.4858 15.813 -129.909 0.0598539 9.84711 12.7377 -8.16499 -0.187073 9.90678 32.2249 -36.443 45.7467 -35.5701 -3.05613 67.9831 62.9575 -8.08986 -32.585 26.934 -5.07619 -6.44569 -35.1547 41.0184 51.3198 18.6455 18.1975 -4.35335 45.3814 -41.4955 29.0644 
-9.29808 85.2799 -18.8201 -4.78091 2.79995 -151.287 -25.8714 -27.7391 1.88324 -1.39634 32.9317 -4.57701 27.516 40.1858 -11.6491 -68.2867 -48.4358 -14.6413 0.671914 8.98762 -0.128542 -1.76094 17.5251 -0.0444491 0.438555 -16.5146 -13.3752 0 6.36111e-015 -0 -68.9565 -19.1338 -43.3047 8.32069 21.0844 -129.891 2.5248 10.0173 12.1741 -7.63849 -0.147567 10.5242 38.8707 -34.8385 51.1409 -31.9257 -2.49676 73.5232 66.5527 -6.94988 -29.1643 26.4949 -2.86786 -6.21109 -34.6288 39.7433 54.5497 19.7781 11.3506 -3.38633 41.6056 -38.7958 28.0511 
-9.89848 84.7136 -19.1664 -3.18898 2.49046 -152.981 -24.6645 -29.8404 4.06163 0.157696 34.0364 -6.861 26.5092 40.3589 -11.2472 -70.4813 -48.7814 -16.3702 1.45307 9.03174 -1.67617 0.351595 17.5905 -3.51681 -0.228796 -18.4153 -8.08481 1.59028e-015 3.18055e-015 -3.18055e-015 -73.2332 -25.2271 -54.2206 7.90209 26.3212 -129.048 5.41698 10.2282 12.5454 -4.862 0.151338 9.78995 45.6755 -34.3351 55.2899 -25.5831 1.60963 83.3573 62.7922 -4.25065 -26.8544 26.3375 -1.60139 -6.13438 -33.1682 38.824 56.7077 20.4949 6.85321 -2.67535 40.3567 -37.7185 28.0309 
-10.3863 84.2407 -19.5592 -1.4985 2.09392 -153.689 -23.7713 -31.6576 7.32916 3.6151 35.3254 -11.2816 23.5524 39.4598 -9.75285 -70.0292 -47.8935 -17.0248 2.5126 9.27221 -3.43207 2.69093 17.9404 -7.37055 -0.828752 -20.8574 -3.4419 7.95139e-016 3.18055e-015 3.18055e-015 -77.7889 -29.0938 -68.0346 10.4554 29.7952 -127.182 7.71828 10.4971 14.2917 -0.881456 0.496534 8.16294 51.5195 -34.4436 57.4933 -19.8135 8.69627 93.5238 55.8395 -0.483582 -23.4776 26.6922 -1.16348 -6.21781 -31.7333 38.2196 58.0885 21.3471 4.88937 -2.40788 41.0218 -37.7993 28.9721 
